<mxfile host="app.diagrams.net" modified="2022-04-04T06:36:09.199Z" agent="5.0 (Windows NT 10.0; Win64; x64) AppleWebKit/537.36 (KHTML, like Gecko) Chrome/99.0.4844.74 Safari/537.36 Edg/99.0.1150.55" etag="hJ58tjKdpv7mqKK57gI4" version="17.4.0" type="github">
  <diagram id="C5RBs43oDa-KdzZeNtuy" name="Page-1">
    <mxGraphModel dx="1784" dy="1748" grid="1" gridSize="10" guides="1" tooltips="1" connect="1" arrows="1" fold="1" page="1" pageScale="1" pageWidth="827" pageHeight="1169" math="0" shadow="0">
      <root>
        <mxCell id="WIyWlLk6GJQsqaUBKTNV-0" />
        <mxCell id="WIyWlLk6GJQsqaUBKTNV-1" parent="WIyWlLk6GJQsqaUBKTNV-0" />
        <mxCell id="WIyWlLk6GJQsqaUBKTNV-2" value="" style="rounded=0;html=1;jettySize=auto;orthogonalLoop=1;fontSize=11;endArrow=block;endFill=0;endSize=8;strokeWidth=1;shadow=0;labelBackgroundColor=none;edgeStyle=orthogonalEdgeStyle;" parent="WIyWlLk6GJQsqaUBKTNV-1" source="WIyWlLk6GJQsqaUBKTNV-3" target="WIyWlLk6GJQsqaUBKTNV-6" edge="1">
          <mxGeometry relative="1" as="geometry" />
        </mxCell>
        <mxCell id="WIyWlLk6GJQsqaUBKTNV-3" value="&lt;div style=&quot;text-align: left&quot;&gt;&lt;span&gt;Basic Information&lt;/span&gt;&lt;/div&gt;&lt;ol&gt;&lt;li style=&quot;text-align: left&quot;&gt;age&lt;/li&gt;&lt;li style=&quot;text-align: left&quot;&gt;gender&lt;/li&gt;&lt;li style=&quot;text-align: left&quot;&gt;Income&lt;/li&gt;&lt;li style=&quot;text-align: left&quot;&gt;mariage&lt;/li&gt;&lt;li style=&quot;text-align: left&quot;&gt;Occupation&lt;/li&gt;&lt;li style=&quot;text-align: left&quot;&gt;Consumer Behavior&lt;/li&gt;&lt;ol&gt;&lt;li style=&quot;text-align: left&quot;&gt;Monthly monetary&lt;/li&gt;&lt;li style=&quot;text-align: left&quot;&gt;Frequency&lt;/li&gt;&lt;/ol&gt;&lt;/ol&gt;" style="rounded=1;whiteSpace=wrap;html=1;fontSize=12;glass=0;strokeWidth=1;shadow=0;fillColor=#ffe6cc;strokeColor=#d79b00;" parent="WIyWlLk6GJQsqaUBKTNV-1" vertex="1">
          <mxGeometry x="40" y="-170" width="400" height="260" as="geometry" />
        </mxCell>
        <mxCell id="WIyWlLk6GJQsqaUBKTNV-6" value="Channel" style="rhombus;whiteSpace=wrap;html=1;shadow=0;fontFamily=Helvetica;fontSize=12;align=center;strokeWidth=1;spacing=6;spacingTop=-4;" parent="WIyWlLk6GJQsqaUBKTNV-1" vertex="1">
          <mxGeometry x="190" y="140" width="100" height="80" as="geometry" />
        </mxCell>
        <mxCell id="WIyWlLk6GJQsqaUBKTNV-7" value="Plug in lamp" style="rounded=1;whiteSpace=wrap;html=1;fontSize=12;glass=0;strokeWidth=1;shadow=0;" parent="WIyWlLk6GJQsqaUBKTNV-1" vertex="1">
          <mxGeometry x="420" y="290" width="120" height="40" as="geometry" />
        </mxCell>
        <mxCell id="t1rxUgNAtfFi7asCY9WM-4" value="" style="endArrow=classic;html=1;rounded=0;entryX=0.5;entryY=0;entryDx=0;entryDy=0;exitX=0;exitY=0.5;exitDx=0;exitDy=0;fontFamily=Verdana;" edge="1" parent="WIyWlLk6GJQsqaUBKTNV-1" source="WIyWlLk6GJQsqaUBKTNV-6" target="t1rxUgNAtfFi7asCY9WM-11">
          <mxGeometry width="50" height="50" relative="1" as="geometry">
            <mxPoint x="480" y="160" as="sourcePoint" />
            <mxPoint x="80" y="240" as="targetPoint" />
            <Array as="points">
              <mxPoint x="80" y="180" />
            </Array>
          </mxGeometry>
        </mxCell>
        <mxCell id="t1rxUgNAtfFi7asCY9WM-10" value="EC" style="text;html=1;resizable=0;autosize=1;align=center;verticalAlign=middle;points=[];fillColor=none;strokeColor=none;rounded=0;fontFamily=Verdana;" vertex="1" parent="WIyWlLk6GJQsqaUBKTNV-1">
          <mxGeometry x="105" y="160" width="30" height="20" as="geometry" />
        </mxCell>
        <mxCell id="t1rxUgNAtfFi7asCY9WM-11" value="&lt;ol&gt;&lt;li&gt;Basic Infromation of&lt;/li&gt;&lt;ol&gt;&lt;li&gt;Main start point&lt;/li&gt;&lt;li&gt;How to get the information&lt;/li&gt;&lt;li&gt;Institve of this channel&lt;/li&gt;&lt;/ol&gt;&lt;li&gt;OMO&lt;/li&gt;&lt;li&gt;生態圈&lt;/li&gt;&lt;li&gt;Feedback of current channel&lt;/li&gt;&lt;/ol&gt;" style="whiteSpace=wrap;html=1;aspect=fixed;fontFamily=Verdana;align=left;" vertex="1" parent="WIyWlLk6GJQsqaUBKTNV-1">
          <mxGeometry x="-50" y="280" width="260" height="260" as="geometry" />
        </mxCell>
      </root>
    </mxGraphModel>
  </diagram>
</mxfile>
